<mxfile host="Electron" modified="2023-12-05T15:04:27.891Z" agent="Mozilla/5.0 (Windows NT 10.0; Win64; x64) AppleWebKit/537.36 (KHTML, like Gecko) draw.io/21.6.8 Chrome/114.0.5735.289 Electron/25.5.0 Safari/537.36" etag="Wvf6qpsR0x_xW7sUaLP0" version="21.6.8" type="device">
  <diagram name="Page-1" id="cPSNi7r_4B1eX6Dvwcpm">
    <mxGraphModel dx="1289" dy="745" grid="1" gridSize="10" guides="1" tooltips="1" connect="1" arrows="1" fold="1" page="0" pageScale="1" pageWidth="850" pageHeight="1100" math="0" shadow="0">
      <root>
        <mxCell id="0" />
        <mxCell id="1" parent="0" />
        <mxCell id="uvmsEu-zWdCl_h9PLu9l-2" style="edgeStyle=orthogonalEdgeStyle;rounded=0;orthogonalLoop=1;jettySize=auto;html=1;exitX=0.5;exitY=0;exitDx=0;exitDy=0;endArrow=none;endFill=0;" parent="1" source="uvmsEu-zWdCl_h9PLu9l-1" edge="1">
          <mxGeometry relative="1" as="geometry">
            <mxPoint x="370" y="140" as="targetPoint" />
          </mxGeometry>
        </mxCell>
        <mxCell id="Fonzlao_ysJsCF2CwRWg-2" style="edgeStyle=orthogonalEdgeStyle;rounded=0;orthogonalLoop=1;jettySize=auto;html=1;entryX=-0.004;entryY=0.183;entryDx=0;entryDy=0;entryPerimeter=0;" edge="1" parent="1">
          <mxGeometry relative="1" as="geometry">
            <mxPoint x="440" y="256.55" as="sourcePoint" />
            <mxPoint x="619.44" y="257.53000000000003" as="targetPoint" />
          </mxGeometry>
        </mxCell>
        <mxCell id="Fonzlao_ysJsCF2CwRWg-3" value="1. getPropriedadeDAO()" style="edgeLabel;html=1;align=center;verticalAlign=middle;resizable=0;points=[];" vertex="1" connectable="0" parent="Fonzlao_ysJsCF2CwRWg-2">
          <mxGeometry x="-0.1314" y="1" relative="1" as="geometry">
            <mxPoint x="11" y="-9" as="offset" />
          </mxGeometry>
        </mxCell>
        <mxCell id="Fonzlao_ysJsCF2CwRWg-7" style="edgeStyle=orthogonalEdgeStyle;rounded=0;orthogonalLoop=1;jettySize=auto;html=1;" edge="1" parent="1" source="uvmsEu-zWdCl_h9PLu9l-1" target="Fonzlao_ysJsCF2CwRWg-6">
          <mxGeometry relative="1" as="geometry">
            <Array as="points">
              <mxPoint x="420" y="350" />
              <mxPoint x="620" y="350" />
            </Array>
          </mxGeometry>
        </mxCell>
        <mxCell id="Fonzlao_ysJsCF2CwRWg-8" value="3. props := retrieve(ownerId)" style="edgeLabel;html=1;align=center;verticalAlign=middle;resizable=0;points=[];" vertex="1" connectable="0" parent="Fonzlao_ysJsCF2CwRWg-7">
          <mxGeometry x="0.0458" y="1" relative="1" as="geometry">
            <mxPoint y="-9" as="offset" />
          </mxGeometry>
        </mxCell>
        <mxCell id="Fonzlao_ysJsCF2CwRWg-10" style="edgeStyle=orthogonalEdgeStyle;rounded=0;orthogonalLoop=1;jettySize=auto;html=1;" edge="1" parent="1" source="uvmsEu-zWdCl_h9PLu9l-1" target="Fonzlao_ysJsCF2CwRWg-9">
          <mxGeometry relative="1" as="geometry" />
        </mxCell>
        <mxCell id="Fonzlao_ysJsCF2CwRWg-12" value="4. projs := retrieve(prop.id) *" style="edgeLabel;html=1;align=center;verticalAlign=middle;resizable=0;points=[];" vertex="1" connectable="0" parent="Fonzlao_ysJsCF2CwRWg-10">
          <mxGeometry x="-0.025" y="2" relative="1" as="geometry">
            <mxPoint as="offset" />
          </mxGeometry>
        </mxCell>
        <mxCell id="Fonzlao_ysJsCF2CwRWg-13" style="edgeStyle=orthogonalEdgeStyle;rounded=0;orthogonalLoop=1;jettySize=auto;html=1;" edge="1" parent="1">
          <mxGeometry relative="1" as="geometry">
            <mxPoint x="380" y="150" as="targetPoint" />
            <mxPoint x="380" y="240" as="sourcePoint" />
          </mxGeometry>
        </mxCell>
        <mxCell id="Fonzlao_ysJsCF2CwRWg-14" value="5. return projs" style="edgeLabel;html=1;align=center;verticalAlign=middle;resizable=0;points=[];" vertex="1" connectable="0" parent="Fonzlao_ysJsCF2CwRWg-13">
          <mxGeometry x="-0.0433" relative="1" as="geometry">
            <mxPoint x="40" as="offset" />
          </mxGeometry>
        </mxCell>
        <mxCell id="uvmsEu-zWdCl_h9PLu9l-1" value=":PropriedadeManager" style="rounded=0;whiteSpace=wrap;html=1;" parent="1" vertex="1">
          <mxGeometry x="300" y="240" width="140" height="60" as="geometry" />
        </mxCell>
        <mxCell id="uvmsEu-zWdCl_h9PLu9l-8" value="getProjects(ownerId)" style="text;html=1;strokeColor=none;fillColor=none;align=center;verticalAlign=middle;whiteSpace=wrap;rounded=0;" parent="1" vertex="1">
          <mxGeometry x="304" y="110" width="140" height="30" as="geometry" />
        </mxCell>
        <mxCell id="Fonzlao_ysJsCF2CwRWg-1" value=":DaoManager" style="rounded=0;whiteSpace=wrap;html=1;" vertex="1" parent="1">
          <mxGeometry x="620" y="240" width="140" height="60" as="geometry" />
        </mxCell>
        <mxCell id="Fonzlao_ysJsCF2CwRWg-4" style="edgeStyle=orthogonalEdgeStyle;rounded=0;orthogonalLoop=1;jettySize=auto;html=1;entryX=-0.004;entryY=0.183;entryDx=0;entryDy=0;entryPerimeter=0;" edge="1" parent="1">
          <mxGeometry relative="1" as="geometry">
            <mxPoint x="440" y="286.55" as="sourcePoint" />
            <mxPoint x="619" y="287.55" as="targetPoint" />
            <Array as="points">
              <mxPoint x="440" y="287.55" />
            </Array>
          </mxGeometry>
        </mxCell>
        <mxCell id="Fonzlao_ysJsCF2CwRWg-5" value="2. getProjetoDAO()" style="edgeLabel;html=1;align=center;verticalAlign=middle;resizable=0;points=[];" vertex="1" connectable="0" parent="Fonzlao_ysJsCF2CwRWg-4">
          <mxGeometry x="-0.1314" y="1" relative="1" as="geometry">
            <mxPoint x="12" y="-9" as="offset" />
          </mxGeometry>
        </mxCell>
        <mxCell id="Fonzlao_ysJsCF2CwRWg-6" value=":PropriedadeDAO" style="rounded=0;whiteSpace=wrap;html=1;" vertex="1" parent="1">
          <mxGeometry x="550" y="420" width="140" height="60" as="geometry" />
        </mxCell>
        <mxCell id="Fonzlao_ysJsCF2CwRWg-9" value=":ProjetoDAO" style="rounded=0;whiteSpace=wrap;html=1;" vertex="1" parent="1">
          <mxGeometry x="300" y="460" width="140" height="60" as="geometry" />
        </mxCell>
      </root>
    </mxGraphModel>
  </diagram>
</mxfile>
